Coordinates
version=1
nRows=4
nColumns=63
inDegrees=yes

Units are S.I. units (second, meters, Newtons, ...)
If the header above contains a line with 'inDegrees', this indicates whether rotational values are in degrees (yes) or radians (no).

endheader
time	pelvis_tilt	pelvis_list	pelvis_rotation	pelvis_tx	pelvis_ty	pelvis_tz	hip_flexion_r	hip_adduction_r	hip_rotation_r	knee_angle_r	knee_angle_r_beta	ankle_angle_r	subtalar_angle_r	mtp_angle_r	hip_flexion_l	hip_adduction_l	hip_rotation_l	knee_angle_l	knee_angle_l_beta	ankle_angle_l	subtalar_angle_l	mtp_angle_l	L5_S1_Flex_Ext	L5_S1_Lat_Bending	L5_S1_axial_rotation	L4_L5_Flex_Ext	L4_L5_Lat_Bending	L4_L5_axial_rotation	L3_L4_Flex_Ext	L3_L4_Lat_Bending	L3_L4_axial_rotation	L2_L3_Flex_Ext	L2_L3_Lat_Bending	L2_L3_axial_rotation	L1_L2_Flex_Ext	L1_L2_Lat_Bending	L1_L2_axial_rotation	L1_T12_Flex_Ext	L1_T12_Lat_Bending	L1_T12_axial_rotation	Abs_r3	Abs_r2	Abs_r1	Abs_t1	Abs_t2	neck_flexion	neck_bending	neck_rotation	arm_flex_r	arm_add_r	arm_rot_r	elbow_flex_r	pro_sup_r	wrist_flex_r	wrist_dev_r	arm_flex_l	arm_add_l	arm_rot_l	elbow_flex_l	pro_sup_l	wrist_flex_l	wrist_dev_l
      2.49152542	      2.09496023	     -4.68027422	    102.04199036	      0.16607274	      0.70418925	      0.91432491	     10.28813161	     -0.26954692	     -3.49278258	     15.97573791	      0.27882923	     32.54878698	      3.19231441	      0.00000000	      6.68701327	     -0.37126786	     13.04092272	      6.99807953	      0.12213953	     29.51529542	     -3.10551766	      0.00000000	      0.05657305	     -0.26033830	      0.78741502	      0.10506182	     -0.34624994	      0.83662846	      0.09294387	     -0.63298654	      0.83662846	      0.06465734	     -0.63298654	      0.68898814	      0.05253374	     -0.53088186	      0.63977470	      0.03232584	     -0.40326403	      0.59056127	      0.40409566	     -2.94499891	      4.37936612	      0.00000000	      0.00000000	     26.39811884	      4.25243545	      4.13697274	      7.78440338	     -7.47538089	     58.36699581	     47.14512599	      8.80599656	     -9.58549422	     18.72882877	     13.77340065	    -10.51936970	     56.37605935	     41.02368907	     87.80531379	     -7.14180240	     -7.55999207
      2.50847458	      1.40205038	     -4.51821595	    101.66949944	      0.16598450	      0.70397169	      0.91418374	     10.51051710	     -0.78760844	     -2.19985806	     17.03208779	      0.29726601	     32.68133342	      1.40344743	      0.00000000	      6.47398296	      0.26673413	     12.10826633	      7.27097674	      0.12690248	     29.82019128	     -2.56437457	      0.00000000	      0.08670835	     -0.29517385	      0.65044640	      0.16102607	     -0.39258121	      0.69109930	      0.14245314	     -0.71768569	      0.69109930	      0.09909897	     -0.71768569	      0.56914060	      0.08051737	     -0.60191851	      0.52848770	      0.04954515	     -0.45722429	      0.48783480	      0.61934905	     -3.33906558	      3.61758774	      0.00000000	      0.00000000	     26.23587038	      4.63321637	      3.38512162	      7.66241024	     -7.53860087	     56.04654715	     45.97535341	     20.42068081	     -1.87273536	     20.73107762	     12.93427607	    -10.47620293	     53.69546506	     37.07325767	     84.80226645	     -7.31397245	     -8.99463231
      2.52542373	      0.69258477	     -4.39754177	    101.49663090	      0.16583898	      0.70384316	      0.91388638	     10.58902234	     -1.48379146	     -1.99415041	     17.80725739	      0.31079527	     32.84341335	      0.80597655	      0.00000000	      6.30480345	      0.94849455	     11.79322437	      7.50332578	      0.13095774	     29.91040567	     -2.46906961	      0.00000000	      0.12188623	     -0.33990507	      0.44831200	      0.22635492	     -0.45207375	      0.47633150	      0.20024689	     -0.82644520	      0.47633150	      0.13930377	     -0.82644520	      0.39227300	      0.11318355	     -0.69313443	      0.36425350	      0.06964579	     -0.52651296	      0.33623400	      0.87062116	     -3.84507418	      2.49337686	      0.00000000	      0.00000000	     25.46216179	      4.84228755	      2.34626423	      7.81146360	     -8.17194890	     54.22224858	     46.70250731	     26.23749394	      0.73302571	     20.72508787	     12.17594156	    -10.34097733	     50.20162254	     33.33235369	     79.36767803	     -5.91881352	     -9.41958866
      2.54237288	     -0.06928625	     -4.23020508	    101.42143205	      0.16616546	      0.70385556	      0.91351556	     10.54675976	     -2.20741477	     -1.91999495	     18.48128571	      0.32255929	     32.80979873	     -0.01025834	      0.00000000	      6.08102773	      1.61120196	     11.29272409	      7.69001864	      0.13421614	     29.92922390	     -1.77638753	      0.00000000	      0.13781904	     -0.40122273	      0.40909962	      0.25594373	     -0.53362623	      0.43466835	      0.22642289	     -0.97553294	      0.43466835	      0.15751338	     -0.97553294	      0.35796217	      0.12797876	     -0.81817339	      0.33239344	      0.07874980	     -0.62149401	      0.30682472	      0.98442759	     -4.53871175	      2.27528937	      0.00000000	      0.00000000	     24.33180085	      5.10144000	      0.70379561	      6.22169263	     -7.89141770	     44.83569277	     46.82449442	     49.26735744	      9.52295242	     20.44189974	     13.57400678	    -10.77004076	     53.43997381	     30.00856026	     71.69830701	     -6.09176706	     -8.51406452
